<svg width="282" height="65" viewBox="0 0 282 65" fill="none" xmlns="http://www.w3.org/2000/svg">
<rect x="38" y="2" width="242" height="61" rx="8" fill="white" stroke="url(#paint0_linear_135_5)" stroke-width="4"/>
<path d="M0 31.5L36 18.9426L36 44.0574L0 31.5Z" fill="url(#paint1_linear_135_5)"/>
<path d="M79.848 47.088C77.616 47.088 75.588 46.716 73.764 45.972C71.94 45.252 70.38 44.232 69.084 42.912C67.788 41.568 66.78 39.96 66.06 38.088C65.364 36.216 65.016 34.14 65.016 31.86C65.016 29.58 65.388 27.504 66.132 25.632C66.9 23.76 67.944 22.164 69.264 20.844C70.584 19.5 72.156 18.468 73.98 17.748C75.804 17.004 77.772 16.632 79.884 16.632C83.1 16.632 85.788 17.352 87.948 18.792C90.132 20.208 91.74 22.224 92.772 24.84C92.82 24.984 92.844 25.08 92.844 25.128C92.844 25.416 92.688 25.584 92.376 25.632L86.256 27.252C86.16 27.3 86.088 27.324 86.04 27.324C85.824 27.324 85.632 27.204 85.464 26.964C84.264 24.9 82.404 23.868 79.884 23.868C78.804 23.868 77.82 24.06 76.932 24.444C76.068 24.804 75.324 25.332 74.7 26.028C74.076 26.724 73.584 27.564 73.224 28.548C72.888 29.532 72.72 30.636 72.72 31.86C72.72 33.084 72.888 34.188 73.224 35.172C73.584 36.156 74.076 36.996 74.7 37.692C75.348 38.388 76.104 38.928 76.968 39.312C77.856 39.672 78.828 39.852 79.884 39.852C81.348 39.852 82.62 39.54 83.7 38.916C84.804 38.268 85.632 37.188 86.184 35.676C86.352 35.292 86.604 35.148 86.94 35.244L93.024 36.864C93.408 36.96 93.564 37.176 93.492 37.512C93.06 38.904 92.436 40.188 91.62 41.364C90.804 42.54 89.808 43.56 88.632 44.424C87.48 45.264 86.16 45.912 84.672 46.368C83.208 46.848 81.6 47.088 79.848 47.088ZM98.2606 46.512C97.8286 46.512 97.6126 46.296 97.6126 45.864V17.208C97.6126 16.776 97.8286 16.56 98.2606 16.56H104.165C104.597 16.56 104.813 16.776 104.813 17.208V45.864C104.813 46.296 104.597 46.512 104.165 46.512H98.2606ZM110.108 46.512C109.676 46.512 109.46 46.296 109.46 45.864V25.92C109.46 25.512 109.676 25.308 110.108 25.308H116.012C116.444 25.308 116.66 25.512 116.66 25.92V45.864C116.66 46.296 116.444 46.512 116.012 46.512H110.108ZM113.06 22.5C111.932 22.5 110.984 22.164 110.216 21.492C109.472 20.82 109.1 19.92 109.1 18.792C109.1 17.664 109.472 16.764 110.216 16.092C110.984 15.396 111.932 15.048 113.06 15.048C114.188 15.048 115.124 15.396 115.868 16.092C116.636 16.764 117.02 17.664 117.02 18.792C117.02 19.92 116.636 20.82 115.868 21.492C115.124 22.164 114.188 22.5 113.06 22.5ZM131.208 46.908C129.528 46.908 128.004 46.644 126.636 46.116C125.292 45.588 124.14 44.844 123.18 43.884C122.244 42.9 121.512 41.736 120.984 40.392C120.48 39.024 120.228 37.524 120.228 35.892C120.228 34.26 120.48 32.772 120.984 31.428C121.512 30.084 122.244 28.932 123.18 27.972C124.14 26.988 125.292 26.232 126.636 25.704C128.004 25.176 129.528 24.912 131.208 24.912C133.584 24.912 135.672 25.428 137.472 26.46C139.272 27.492 140.556 29.148 141.324 31.428C141.348 31.476 141.36 31.56 141.36 31.68C141.36 31.968 141.204 32.148 140.892 32.22L135.924 33.624C135.876 33.624 135.84 33.636 135.816 33.66C135.792 33.66 135.756 33.66 135.708 33.66C135.444 33.66 135.24 33.516 135.096 33.228C134.712 32.532 134.22 32.028 133.62 31.716C133.044 31.38 132.372 31.212 131.604 31.212C130.26 31.212 129.24 31.668 128.544 32.58C127.872 33.468 127.536 34.572 127.536 35.892C127.536 36.54 127.62 37.152 127.788 37.728C127.956 38.304 128.208 38.808 128.544 39.24C128.904 39.672 129.336 40.008 129.84 40.248C130.344 40.488 130.932 40.608 131.604 40.608C132.348 40.608 133.032 40.44 133.656 40.104C134.28 39.768 134.76 39.228 135.096 38.484C135.264 38.124 135.528 37.98 135.888 38.052L141.288 39.42C141.6 39.468 141.756 39.636 141.756 39.924C141.756 39.972 141.732 40.068 141.684 40.212C140.844 42.492 139.488 44.172 137.616 45.252C135.744 46.356 133.608 46.908 131.208 46.908ZM145.686 46.512C145.254 46.512 145.038 46.296 145.038 45.864V17.208C145.038 16.776 145.254 16.56 145.686 16.56H151.59C152.022 16.56 152.238 16.776 152.238 17.208V32.436L158.142 25.668C158.358 25.428 158.61 25.308 158.898 25.308H165.882C166.242 25.308 166.422 25.428 166.422 25.668C166.422 25.788 166.35 25.92 166.206 26.064L159.906 32.616L167.034 45.756C167.106 45.9 167.142 46.02 167.142 46.116C167.142 46.38 166.962 46.512 166.602 46.512H159.978C159.594 46.512 159.342 46.368 159.222 46.08L154.866 37.836L152.238 40.572V45.864C152.238 46.296 152.022 46.512 151.59 46.512H145.686ZM183.479 46.512C183.047 46.512 182.831 46.296 182.831 45.864V25.92C182.831 25.512 183.047 25.308 183.479 25.308H188.519C188.951 25.308 189.167 25.512 189.167 25.92L189.275 27.936C190.043 26.904 190.967 26.148 192.047 25.668C193.151 25.164 194.399 24.912 195.791 24.912C197.303 24.912 198.611 25.188 199.715 25.74C200.843 26.292 201.731 27.096 202.379 28.152C203.147 27.048 204.107 26.232 205.259 25.704C206.435 25.176 207.755 24.912 209.219 24.912C211.691 24.912 213.587 25.596 214.907 26.964C216.251 28.332 216.923 30.24 216.923 32.688V45.864C216.923 46.296 216.731 46.512 216.347 46.512H210.407C210.215 46.512 210.059 46.452 209.939 46.332C209.819 46.212 209.759 46.056 209.759 45.864V35.388C209.759 33.9 209.519 32.832 209.039 32.184C208.583 31.536 207.863 31.212 206.879 31.212C205.847 31.212 205.019 31.608 204.395 32.4C203.795 33.168 203.495 34.332 203.495 35.892V45.864C203.495 46.296 203.279 46.512 202.847 46.512H196.943C196.511 46.512 196.295 46.296 196.295 45.864V35.388C196.295 33.9 196.067 32.832 195.611 32.184C195.155 31.536 194.423 31.212 193.415 31.212C192.407 31.212 191.591 31.608 190.967 32.4C190.343 33.168 190.031 34.332 190.031 35.892V45.864C190.031 46.296 189.815 46.512 189.383 46.512H183.479ZM231.477 46.908C229.797 46.908 228.261 46.632 226.869 46.08C225.501 45.552 224.337 44.808 223.377 43.848C222.417 42.864 221.673 41.7 221.145 40.356C220.617 39.012 220.353 37.524 220.353 35.892C220.353 34.26 220.617 32.772 221.145 31.428C221.673 30.084 222.417 28.932 223.377 27.972C224.337 27.012 225.501 26.268 226.869 25.74C228.261 25.188 229.797 24.912 231.477 24.912C233.253 24.912 234.813 25.212 236.157 25.812C237.501 26.412 238.617 27.252 239.505 28.332C240.393 29.388 241.041 30.672 241.449 32.184C241.881 33.672 242.049 35.316 241.953 37.116C241.905 37.524 241.677 37.728 241.269 37.728H227.625C227.889 38.784 228.345 39.588 228.993 40.14C229.665 40.692 230.505 40.968 231.513 40.968C233.121 40.968 234.285 40.464 235.005 39.456C235.245 39.192 235.533 39.096 235.869 39.168L240.981 40.896C241.245 41.016 241.377 41.172 241.377 41.364C241.377 41.46 241.341 41.58 241.269 41.724C240.789 42.636 240.189 43.416 239.469 44.064C238.773 44.712 237.993 45.24 237.129 45.648C236.289 46.08 235.389 46.392 234.429 46.584C233.469 46.8 232.485 46.908 231.477 46.908ZM234.897 33.804C234.705 32.748 234.309 31.944 233.709 31.392C233.109 30.816 232.329 30.528 231.369 30.528C230.361 30.528 229.533 30.804 228.885 31.356C228.261 31.908 227.841 32.724 227.625 33.804H234.897ZM246.453 36.648C246.261 36.648 246.105 36.588 245.985 36.468C245.865 36.348 245.805 36.192 245.805 36L245.337 17.856C245.337 17.664 245.397 17.508 245.517 17.388C245.637 17.268 245.793 17.208 245.985 17.208H251.889C252.081 17.208 252.225 17.268 252.321 17.388C252.441 17.508 252.501 17.664 252.501 17.856L252.033 36C252.033 36.432 251.817 36.648 251.385 36.648H246.453ZM248.937 46.908C247.785 46.908 246.813 46.548 246.021 45.828C245.229 45.108 244.833 44.16 244.833 42.984C244.833 41.832 245.229 40.896 246.021 40.176C246.813 39.456 247.785 39.096 248.937 39.096C249.513 39.096 250.041 39.192 250.521 39.384C251.025 39.576 251.457 39.84 251.817 40.176C252.177 40.512 252.465 40.92 252.681 41.4C252.897 41.88 253.005 42.408 253.005 42.984C253.005 43.56 252.897 44.1 252.681 44.604C252.465 45.084 252.177 45.492 251.817 45.828C251.457 46.164 251.025 46.428 250.521 46.62C250.041 46.812 249.513 46.908 248.937 46.908Z" fill="black" fill-opacity="0.8"/>
<defs>
<linearGradient id="paint0_linear_135_5" x1="159" y1="0" x2="159" y2="65" gradientUnits="userSpaceOnUse">
<stop stop-color="#DA70D6"/>
<stop offset="0.283654" stop-color="#DA70D6"/>
<stop offset="0.355769" stop-color="#569CD6"/>
<stop offset="0.634615" stop-color="#569CD6"/>
<stop offset="0.711538" stop-color="#FFD602"/>
<stop offset="1" stop-color="#FFD602"/>
</linearGradient>
<linearGradient id="paint1_linear_135_5" x1="24" y1="17" x2="24" y2="46" gradientUnits="userSpaceOnUse">
<stop stop-color="#DA70D6"/>
<stop offset="0.288462" stop-color="#DA70D6"/>
<stop offset="0.375" stop-color="#569CD6"/>
<stop offset="0.620192" stop-color="#569CD6"/>
<stop offset="0.754808" stop-color="#FFD602"/>
<stop offset="1" stop-color="#FFD602"/>
</linearGradient>
</defs>
</svg>
