<svg width="254" height="76" viewBox="0 0 254 76" fill="none" xmlns="http://www.w3.org/2000/svg">
<rect y="20" width="44" height="31" fill="#569CD6"/>
<rect x="1" y="21" width="42" height="29" stroke="black" stroke-opacity="0.8" stroke-width="2"/>
<rect x="42" y="20" width="44" height="31" fill="#569CD6"/>
<rect x="43" y="21" width="42" height="29" stroke="black" stroke-opacity="0.8" stroke-width="2"/>
<rect x="84" y="20" width="44" height="31" fill="#FFD602"/>
<rect x="85" y="21" width="42" height="29" stroke="black" stroke-opacity="0.8" stroke-width="2"/>
<rect x="126" y="20" width="44" height="31" fill="#FFD602"/>
<rect x="127" y="21" width="42" height="29" stroke="black" stroke-opacity="0.8" stroke-width="2"/>
<rect x="168" y="20" width="44" height="31" fill="#DA70D6"/>
<rect x="169" y="21" width="42" height="29" stroke="black" stroke-opacity="0.8" stroke-width="2"/>
<rect x="210" y="20" width="44" height="31" fill="#DA70D6"/>
<rect x="211" y="21" width="42" height="29" stroke="black" stroke-opacity="0.8" stroke-width="2"/>
<path d="M185.5 0L187.184 5.18237H192.633L188.225 8.38525L189.908 13.5676L185.5 10.3647L181.092 13.5676L182.775 8.38525L178.367 5.18237H183.816L185.5 0Z" fill="#DA70D6"/>
<path d="M227.5 3L229.184 8.18237H234.633L230.225 11.3853L231.908 16.5676L227.5 13.3647L223.092 16.5676L224.775 11.3853L220.367 8.18237H225.816L227.5 3Z" fill="#DA70D6"/>
<path d="M242.5 54L244.184 59.1824H249.633L245.225 62.3853L246.908 67.5676L242.5 64.3647L238.092 67.5676L239.775 62.3853L235.367 59.1824H240.816L242.5 54Z" fill="#DA70D6"/>
<path d="M167.5 56L169.184 61.1824H174.633L170.225 64.3853L171.908 69.5676L167.5 66.3647L163.092 69.5676L164.775 64.3853L160.367 61.1824H165.816L167.5 56Z" fill="#DA70D6"/>
<path d="M209.5 61L211.184 66.1824H216.633L212.225 69.3853L213.908 74.5676L209.5 71.3647L205.092 74.5676L206.775 69.3853L202.367 66.1824H207.816L209.5 61Z" fill="#DA70D6"/>
</svg>
