<svg width="256" height="69" viewBox="0 0 256 69" fill="none" xmlns="http://www.w3.org/2000/svg">
<rect x="212" y="18" width="44" height="31" fill="white"/>
<rect x="213" y="19" width="42" height="29" stroke="black" stroke-opacity="0.8" stroke-width="2" stroke-dasharray="4 4"/>
<mask id="path-3-inside-1_131_109" fill="white">
<path d="M170 18H214V49H170V18Z"/>
</mask>
<path d="M170 18H214V49H170V18Z" fill="white"/>
<path d="M214 18H215V17H214V18ZM214 49V50H215V49H214ZM170 49V50H171.833V49V48H170V49ZM175.5 49V50H179.167V49V48H175.5V49ZM182.833 49V50H186.5V49V48H182.833V49ZM190.167 49V50H193.833V49V48H190.167V49ZM197.5 49V50H201.167V49V48H197.5V49ZM204.833 49V50H208.5V49V48H204.833V49ZM212.167 49V50H214V49V48H212.167V49ZM214 49H215V47.0625H214H213V49H214ZM214 43.1875H215V39.3125H214H213V43.1875H214ZM214 35.4375H215V31.5625H214H213V35.4375H214ZM214 27.6875H215V23.8125H214H213V27.6875H214ZM214 19.9375H215V18H214H213V19.9375H214ZM214 18V17H212.167V18V19H214V18ZM208.5 18V17H204.833V18V19H208.5V18ZM201.167 18V17H197.5V18V19H201.167V18ZM193.833 18V17H190.167V18V19H193.833V18ZM186.5 18V17H182.833V18V19H186.5V18ZM179.167 18V17H175.5V18V19H179.167V18ZM171.833 18V17H170V18V19H171.833V18ZM214 18H216V16H214V18ZM214 49V51H216V49H214ZM170 49V51H171.833V49V47H170V49ZM175.5 49V51H179.167V49V47H175.5V49ZM182.833 49V51H186.5V49V47H182.833V49ZM190.167 49V51H193.833V49V47H190.167V49ZM197.5 49V51H201.167V49V47H197.5V49ZM204.833 49V51H208.5V49V47H204.833V49ZM212.167 49V51H214V49V47H212.167V49ZM214 49H216V47.0625H214H212V49H214ZM214 43.1875H216V39.3125H214H212V43.1875H214ZM214 35.4375H216V31.5625H214H212V35.4375H214ZM214 27.6875H216V23.8125H214H212V27.6875H214ZM214 19.9375H216V18H214H212V19.9375H214ZM214 18V16H212.167V18V20H214V18ZM208.5 18V16H204.833V18V20H208.5V18ZM201.167 18V16H197.5V18V20H201.167V18ZM193.833 18V16H190.167V18V20H193.833V18ZM186.5 18V16H182.833V18V20H186.5V18ZM179.167 18V16H175.5V18V20H179.167V18ZM171.833 18V16H170V18V20H171.833V18Z" fill="black" fill-opacity="0.8" mask="url(#path-3-inside-1_131_109)"/>
<rect y="18" width="44" height="31" fill="#569CD6"/>
<rect x="1" y="19" width="42" height="29" stroke="black" stroke-opacity="0.8" stroke-width="2"/>
<rect x="42" y="18" width="44" height="31" fill="#569CD6"/>
<rect x="43" y="19" width="42" height="29" stroke="black" stroke-opacity="0.8" stroke-width="2"/>
<rect x="84" y="18" width="44" height="31" fill="#FFD602"/>
<rect x="85" y="19" width="42" height="29" stroke="black" stroke-opacity="0.8" stroke-width="2"/>
<rect x="126" y="18" width="44" height="31" fill="#FFD602"/>
<rect x="127" y="19" width="42" height="29" stroke="black" stroke-opacity="0.8" stroke-width="2"/>
<path d="M140.5 0L142.184 5.18237H147.633L143.225 8.38525L144.908 13.5676L140.5 10.3647L136.092 13.5676L137.775 8.38525L133.367 5.18237H138.816L140.5 0Z" fill="#FFD602"/>
<path d="M182.5 11L184.184 16.1824H189.633L185.225 19.3853L186.908 24.5676L182.5 21.3647L178.092 24.5676L179.775 19.3853L175.367 16.1824H180.816L182.5 11Z" fill="#FFD602"/>
<path d="M113.5 52L115.184 57.1824H120.633L116.225 60.3853L117.908 65.5676L113.5 62.3647L109.092 65.5676L110.775 60.3853L106.367 57.1824H111.816L113.5 52Z" fill="#FFD602"/>
<path d="M152.5 55L154.184 60.1824H159.633L155.225 63.3853L156.908 68.5676L152.5 65.3647L148.092 68.5676L149.775 63.3853L145.367 60.1824H150.816L152.5 55Z" fill="#FFD602"/>
</svg>
